<?xml version="1.0" encoding="UTF-8" standalone="no"?>
<!-- Created with Inkscape (http://www.inkscape.org/) -->

<svg
   version="1.1"
   id="svg1750"
   width="920"
   height="160"
   viewBox="0 0 920 160"
   sodipodi:docname="prospero@3x_purple.svg"
   inkscape:version="1.1 (c68e22c387, 2021-05-23)"
   xmlns:inkscape="http://www.inkscape.org/namespaces/inkscape"
   xmlns:sodipodi="http://sodipodi.sourceforge.net/DTD/sodipodi-0.dtd"
   xmlns:xlink="http://www.w3.org/1999/xlink"
   xmlns="http://www.w3.org/2000/svg"
   xmlns:svg="http://www.w3.org/2000/svg">
  <defs
     id="defs1754">
    <linearGradient
       inkscape:collect="always"
       id="linearGradient20982">
      <stop
         style="stop-color:#b96acf;stop-opacity:1;"
         offset="0"
         id="stop20978" />
      <stop
         style="stop-color:#b96acf;stop-opacity:0;"
         offset="1"
         id="stop20980" />
    </linearGradient>
    <linearGradient
       id="linearGradient20887"
       inkscape:swatch="solid">
      <stop
         style="stop-color:#b96acf;stop-opacity:1;"
         offset="0"
         id="stop20885" />
    </linearGradient>
    <linearGradient
       id="linearGradient18087"
       inkscape:swatch="solid">
      <stop
         style="stop-color:#000000;stop-opacity:1;"
         offset="0"
         id="stop18085" />
    </linearGradient>
    <linearGradient
       inkscape:collect="always"
       xlink:href="#linearGradient20982"
       id="linearGradient20990"
       x1="205.11613"
       y1="79.935417"
       x2="900.96033"
       y2="79.935417"
       gradientUnits="userSpaceOnUse" />
  </defs>
  <sodipodi:namedview
     id="namedview1752"
     pagecolor="#ffffff"
     bordercolor="#666666"
     borderopacity="1.0"
     inkscape:pageshadow="2"
     inkscape:pageopacity="0.0"
     inkscape:pagecheckerboard="0"
     showgrid="false"
     inkscape:zoom="1.026087"
     inkscape:cx="337.20339"
     inkscape:cy="-151.05932"
     inkscape:window-width="2558"
     inkscape:window-height="1188"
     inkscape:window-x="138"
     inkscape:window-y="37"
     inkscape:window-maximized="0"
     inkscape:current-layer="g1756" />
  <g
     inkscape:groupmode="layer"
     inkscape:label="ProsperoLogo"
     id="g1756">
    <path
       style="display:inline;fill:url(#linearGradient20990);stroke-width:1;fill-opacity:1;fill-rule:evenodd"
       d="m 373.48643,111.20382 c -7.68966,-7.68967 -12.28834,-16.906561 -12.28834,-29.928043 0,-12.413896 4.0859,-22.644972 11.42783,-30.810967 20.50912,-22.811077 68.72537,-21.408066 89.2874,1.461855 12.46175,13.860464 12.45106,39.379839 1.50835,55.170165 -4.4682,6.44763 -16.57921,14.6001 -25.15452,17.22957 -10.28656,2.46896 -16.79684,2.54837 -23.59566,2.7688 -15.35261,0.49774 -26.06227,-2.71943 -41.18506,-15.89138 z m 54.69481,1.33226 c 14.76379,-5.03053 20.58582,-20.863129 19.62106,-36.023103 -0.64027,-10.060984 -5.54729,-21.613908 -12.13448,-25.609103 -5.91274,-3.586131 -8.11964,-5.995319 -18.89659,-6.218585 -11.1553,-0.231105 -15.10304,3.386866 -21.43889,8.92184 -10.85104,9.479421 -13.13841,28.58777 -6.6816,42.454447 7.3424,15.768524 22.67453,22.217914 39.5305,16.474504 z m 69.78118,13.90795 c -6.08584,-1.43432 -20.15522,-10.77758 -20.15522,-10.77758 l 6.7011,-17.800117 7.66287,6.970317 c 6.8312,6.21382 13.43695,9.70149 17.83522,9.70149 4.39492,0 10.3841,-3.01272 11.45986,-5.8161 1.45553,-3.79305 1.37922,-8.52505 -0.78664,-11.617255 -1.1562,-1.650702 -8.57798,-5.154502 -15.0039,-8.381798 -19.85408,-9.971311 -24.72126,-16.698575 -24.72126,-31.278182 0,-14.73554 11.4253,-25.114804 28.55155,-25.301188 20.9726,-0.228244 29.57431,10.129276 29.57431,10.129276 l -8.99283,15.561147 c 0,0 -4.34742,-4.876646 -6.03032,-6.669229 -5.27124,-5.614769 -17.27498,-9.236891 -20.54079,-1.821109 -3.47749,7.896472 5.27791,18.440759 20.38194,22.593594 5.21916,1.435003 16.6701,10.252535 19.2519,19.473807 1.52817,5.458092 0.97583,10.249257 -0.9879,16.478927 -4.68892,14.87495 -24.49566,23.19794 -44.19989,18.554 z m 347.84761,1.19192 c -12.67088,0.17291 -25.02006,-3.85658 -31.49413,-7.56813 -27.44244,-15.73262 -31.88298,-56.966279 -6.05197,-75.331457 10.80657,-7.683192 23.75103,-12.641126 37.67243,-12.501419 15.6944,0.157501 32.30036,6.463722 42.22708,16.390441 19.99555,19.995552 16.20995,57.212465 -8.91675,69.945125 -11.34532,5.74911 -22.38199,8.91458 -33.43666,9.06544 z m 14.34864,-17.13353 c 6.67356,-3.63221 11.08215,-8.97691 14.9782,-17.426199 3.77752,-8.192241 1.75847,-22.664783 -2.28755,-30.970918 -5.73654,-11.776616 -13.60059,-16.908636 -26.61455,-16.85785 -9.75787,0.03808 -16.42595,3.619462 -23.1668,11.277473 -6.35526,7.219953 -8.02913,12.329805 -8.02913,23.718668 0,11.760724 2.0429,17.344961 9.02807,24.876426 10.14452,10.93789 23.58142,12.19137 36.09176,5.3824 z m -654.78412,-77.129776 16.53699,-0.05658 c 17.35756,-0.05939 26.06876,1.517149 34.39688,5.548723 8.48726,4.108612 14.77715,12.108675 14.24545,22.842906 -0.74345,15.009581 -11.02475,23.49733 -28.8872,24.485433 C 236.4521,86.48163 229.65,86.789431 229.65,86.789431 l 2.27016,-7.71331 c 0,0 6.0096,-0.919939 10.91776,-3.673306 3.83308,-2.150267 5.34731,-6.630859 5.94691,-9.019897 1.05486,-4.202943 -0.20885,-10.844682 -2.3427,-13.415828 -2.9021,-3.496806 -6.86248,-5.81808 -15.56273,-6.602312 l -2.7708,-0.02021 -0.29964,80.089842 -22.69283,-0.0779 c 0,0 0.20263,-62.997624 0.25842,-92.983866 z m 76.00238,92.738586 -0.28327,-92.11499 28.4643,0.08622 c 7.22353,0.02188 17.73099,1.648365 23.24777,4.819582 8.00839,4.60347 11.88907,8.03875 13.02425,15.097088 0.86116,5.354533 1.49241,18.710278 -7.74628,24.756153 l -8.05073,5.268469 30.98874,41.979908 -26.17547,0.14027 -24.59383,-39.649175 -6.22047,-0.10243 3.54186,-7.962683 c 0,0 5.09304,0.171672 8.19191,-1.452316 9.22832,-4.836179 12.69687,-15.039234 6.98785,-22.523486 -3.79555,-4.975782 -11.29454,-7.318806 -14.30335,-7.510488 l -5.41652,0.176433 -0.0178,78.775275 z M 556.11511,34.050847 571.5101,33.929025 c 12.23484,-0.09681 22.86935,0.21171 30.49824,2.585986 13.08513,4.072383 18.9877,13.067395 18.95101,24.252675 -0.0288,8.786059 -5.64591,17.305088 -12.4078,21.468461 -11.06078,6.81025 -28.60072,3.452767 -28.60072,3.452767 l 2.99725,-6.7044 c 0,0 5.50037,0.478556 10.31712,-3.695735 5.64437,-4.891518 7.40033,-13.139944 5.30972,-18.969736 -1.85427,-5.170752 -7.74814,-7.867869 -13.65964,-9.267672 l -6.06253,-0.0768 -0.42969,79.378889 -23.52617,-0.16066 c 0,0 2.01309,-62.160727 1.21822,-92.141958 z m 75.99627,91.924883 -0.42599,-92.72008 54.73699,-0.161384 5.95986,13.2712 -38.61917,0.121822 0.33342,26.58496 29.66658,0.249155 0.48729,11.753488 -30.63538,-0.382248 -0.3392,28.820067 46.01414,-0.0517 -5.12105,12.24451 z m 77.93947,-92.254884 22.34675,-0.0656 c 20.6647,-0.06067 26.62139,2.147119 33.9621,7.601549 6.19086,5.783513 9.2871,8.179119 9.10673,20.867396 C 775.23903,78.120666 758.71697,84 758.71697,84 l 33.23799,42.98799 -28.21807,-0.63159 -24.5071,-40.105814 -5.03624,-0.14187 3.41339,-7.326936 c 0,0 10.60471,-2.025545 12.60071,-5.885382 2.62224,-5.070841 4.66327,-11.369652 1.28334,-18.823545 -0.82796,-1.825939 -5.04997,-4.887677 -9.27426,-6.170681 -4.41685,-1.341483 -8.82484,-0.863331 -8.82484,-0.863331 l -0.0451,78.788489 -23.05226,-0.36547 z"
       id="path1862"
       sodipodi:nodetypes="csssscscssssssssccsssssssccssssssssssssssssssssscssssccssscccccccssssccccccssccccccssssccssccccccccccccccccccccscsccccccsssccc"
       inkscape:label="text" />
    <g
       id="g2460"
       inkscape:label="circles"
       style="display:inline;fill-opacity:1;fill:#b96acf;fill-rule:evenodd">
      <ellipse
         style="opacity:1;fill:#b96acf;fill-rule:evenodd;stroke-width:6.67087;stroke-linecap:round;stroke-dasharray:6.67087, 6.67087;fill-opacity:1"
         id="path2153"
         cx="35.084751"
         cy="48.972462"
         rx="15.349575"
         ry="15.59322" />
      <ellipse
         style="fill:#b96acf;fill-rule:evenodd;stroke-width:6.67087;stroke-linecap:round;stroke-dasharray:6.67087, 6.67087;fill-opacity:1"
         id="path2153-8"
         cx="65.783897"
         cy="18.760595"
         rx="15.349575"
         ry="15.59322" />
      <ellipse
         style="fill:#b96acf;fill-rule:evenodd;stroke-width:6.67087;stroke-linecap:round;stroke-dasharray:6.67087, 6.67087;fill-opacity:1"
         id="path2153-8-1"
         cx="95.752121"
         cy="49.459747"
         rx="15.349575"
         ry="15.59322" />
      <ellipse
         style="fill:#b96acf;fill-rule:evenodd;stroke-width:6.67087;stroke-linecap:round;stroke-dasharray:6.67087, 6.67087;fill-opacity:1"
         id="path2153-8-1-2"
         cx="126.20763"
         cy="80.158897"
         rx="15.349575"
         ry="15.59322" />
      <ellipse
         style="fill:#b96acf;fill-rule:evenodd;stroke-width:6.67087;stroke-linecap:round;stroke-dasharray:6.67087, 6.67087;fill-opacity:1"
         id="path2153-8-1-6"
         cx="65.296608"
         cy="79.671608"
         rx="15.349575"
         ry="15.59322" />
      <ellipse
         style="fill:#b96acf;fill-rule:evenodd;stroke-width:6.67087;stroke-linecap:round;stroke-dasharray:6.67087, 6.67087;fill-opacity:1"
         id="path2153-8-1-1"
         cx="95.508476"
         cy="110.12712"
         rx="15.349575"
         ry="15.59322" />
      <ellipse
         style="fill:#b96acf;fill-rule:evenodd;stroke-width:6.67087;stroke-linecap:round;stroke-dasharray:6.67087, 6.67087;fill-opacity:1"
         id="path2153-8-1-3"
         cx="64.809319"
         cy="141.55721"
         rx="15.349575"
         ry="15.59322" />
      <ellipse
         style="fill:#b96acf;fill-rule:evenodd;stroke-width:6.67087;stroke-linecap:round;stroke-dasharray:6.67087, 6.67087;fill-opacity:1"
         id="path2153-8-1-17"
         cx="34.597454"
         cy="110.37077"
         rx="15.349575"
         ry="15.59322" />
    </g>
  </g>
</svg>
